<svg width="239" height="70" viewBox="0 0 239 70" fill="none" xmlns="http://www.w3.org/2000/svg">
<mask id="path-1-outside-1_1_2" maskUnits="userSpaceOnUse" x="0" y="0" width="239" height="70" fill="black">
<rect fill="white" width="239" height="70"/>
<path d="M19.6 50.4C22.16 50.4 24.272 49.8027 25.936 48.608C27.6427 47.3707 28.496 45.4507 28.496 42.848C28.496 40.928 27.92 39.328 26.768 38.048C25.6587 36.768 23.6533 35.7013 20.752 34.848L14.8 33.056C11.8133 32.16 9.50933 30.624 7.888 28.448C6.30933 26.2293 5.52 23.4773 5.52 20.192C5.52 18.016 6.01067 15.9893 6.992 14.112C8.016 12.2347 9.552 10.72 11.6 9.568C13.6907 8.416 16.3147 7.84 19.472 7.84C22.928 7.84 25.7227 8.48 27.856 9.76C29.9893 10.9973 31.4827 12.6187 32.336 14.624C33.1893 16.6293 33.4027 18.784 32.976 21.088L25.616 22.432C26.2987 18.464 26 15.4133 24.72 13.28C23.4827 11.1467 21.456 10.08 18.64 10.08C16.464 10.08 14.7147 10.72 13.392 12C12.112 13.28 11.472 15.1147 11.472 17.504C11.472 19.4667 12.0267 21.1947 13.136 22.688C14.288 24.1813 16.1653 25.3333 18.768 26.144L24.72 27.936C27.9627 28.8747 30.3947 30.304 32.016 32.224C33.6373 34.1013 34.448 36.7253 34.448 40.096C34.448 42.4853 33.8933 44.64 32.784 46.56C31.7173 48.4373 30.0747 49.9307 27.856 51.04C25.68 52.1067 22.9493 52.64 19.664 52.64C17.2747 52.64 15.0133 52.2987 12.88 51.616C10.7467 50.8907 8.95467 49.7173 7.504 48.096C6.096 46.4747 5.2 44.2773 4.816 41.504L9.104 39.968C9.31733 42.6987 9.91467 44.832 10.896 46.368C11.92 47.8613 13.1787 48.9067 14.672 49.504C16.208 50.1013 17.8507 50.4 19.6 50.4ZM38.9615 21.344V19.552H50.8655V24.864C52.1028 22.8587 53.4468 21.3653 54.8975 20.384C56.3482 19.4027 58.0762 18.912 60.0815 18.912C63.6655 18.912 66.5028 20.3413 68.5935 23.2C70.7268 26.016 71.7935 29.984 71.7935 35.104V36.384C71.7935 41.3333 70.5775 45.28 68.1455 48.224C65.7135 51.168 62.3428 52.64 58.0335 52.64C55.4735 52.64 53.2122 52 51.2495 50.72V60.256C51.2495 61.7067 51.3135 62.56 51.4415 62.816C51.5695 63.1147 51.9748 63.3067 52.6575 63.392L57.4575 63.84V65.632H38.9615V63.84L42.4815 63.392C43.1642 63.3067 43.5695 63.1147 43.6975 62.816C43.8255 62.56 43.8895 61.7067 43.8895 60.256V24.928C43.8895 23.4773 43.8255 22.624 43.6975 22.368C43.5695 22.0693 43.1642 21.8773 42.4815 21.792L38.9615 21.344ZM58.4175 21.728C57.3508 21.728 56.2202 22.176 55.0255 23.072C53.8735 23.9253 52.6148 25.696 51.2495 28.384V47.712C52.8708 49.3333 54.8548 50.144 57.2015 50.144C59.5908 50.144 61.2975 49.0987 62.3215 47.008C63.3882 44.8747 63.9215 41.9733 63.9215 38.304V33.184C63.9215 29.216 63.4308 26.3147 62.4495 24.48C61.4682 22.6453 60.1242 21.728 58.4175 21.728ZM105.711 44.384C104.943 47.3707 103.514 49.504 101.423 50.784C99.3323 52.0213 96.9003 52.64 94.127 52.64C89.007 52.64 85.167 51.168 82.607 48.224C80.047 45.2373 78.767 41.2907 78.767 36.384V35.104C78.767 30.1973 79.9617 26.272 82.351 23.328C84.783 20.384 88.2817 18.912 92.847 18.912C95.407 18.912 97.6683 19.424 99.631 20.448C101.636 21.4293 103.194 22.8587 104.303 24.736C105.455 26.6133 106.031 28.896 106.031 31.584C106.031 32.224 105.988 32.9067 105.903 33.632C105.86 34.3573 105.754 35.0827 105.583 35.808H86.639V37.664C86.639 42.1867 87.279 45.4507 88.559 47.456C89.839 49.4187 91.9083 50.4 94.767 50.4C96.6017 50.4 98.159 49.8667 99.439 48.8C100.719 47.6907 101.444 45.8347 101.615 43.232L105.711 44.384ZM92.847 21.152C90.7563 21.152 89.199 22.112 88.175 24.032C87.151 25.952 86.639 29.1307 86.639 33.568H98.223C98.3937 32.7147 98.5003 31.9253 98.543 31.2C98.6283 30.432 98.671 29.728 98.671 29.088C98.671 26.3573 98.1377 24.352 97.071 23.072C96.0043 21.792 94.5963 21.152 92.847 21.152ZM125.314 39.904L120.898 38.88C118.039 38.1973 115.906 36.9813 114.498 35.232C113.133 33.44 112.45 31.328 112.45 28.896C112.45 27.104 112.834 25.4613 113.602 23.968C114.413 22.432 115.671 21.216 117.378 20.32C119.085 19.3813 121.303 18.912 124.034 18.912C126.978 18.912 129.367 19.3813 131.202 20.32C133.037 21.2587 134.338 22.496 135.106 24.032C135.874 25.568 136.109 27.2107 135.81 28.96L128.77 30.24C129.367 27.3387 129.197 25.0987 128.258 23.52C127.362 21.9413 125.847 21.152 123.714 21.152C122.221 21.152 120.983 21.6 120.002 22.496C119.021 23.3493 118.53 24.5867 118.53 26.208C118.53 27.7013 118.957 29.024 119.81 30.176C120.663 31.2853 121.922 32.032 123.586 32.416L128.002 33.44C131.159 34.1653 133.442 35.3173 134.85 36.896C136.258 38.432 136.962 40.352 136.962 42.656C136.962 45.5147 135.895 47.904 133.762 49.824C131.671 51.7013 128.535 52.64 124.354 52.64C122.903 52.64 121.303 52.4267 119.554 52C117.847 51.5307 116.269 50.6987 114.818 49.504C113.41 48.3093 112.386 46.6027 111.746 44.384L115.906 42.72C116.205 45.536 117.165 47.52 118.786 48.672C120.45 49.824 122.306 50.4 124.354 50.4C126.274 50.4 127.831 49.9733 129.026 49.12C130.263 48.224 130.882 46.944 130.882 45.28C130.882 44.128 130.477 43.0827 129.666 42.144C128.898 41.1627 127.447 40.416 125.314 39.904ZM178.72 50.208V52H161.504V50.208L165.024 49.76C165.707 49.6747 166.112 49.504 166.24 49.248C166.368 48.9493 166.432 48.0747 166.432 46.624V30.496C166.432 27.552 165.984 25.4187 165.088 24.096C164.235 22.7307 162.955 22.048 161.248 22.048C160.523 22.048 159.669 22.24 158.688 22.624C157.749 22.9653 156.789 23.6053 155.808 24.544C154.869 25.4827 154.037 26.8693 153.312 28.704V46.624C153.312 48.0747 153.376 48.9493 153.504 49.248C153.632 49.504 154.037 49.6747 154.72 49.76L158.24 50.208V52H141.024V50.208L144.544 49.76C145.227 49.6747 145.632 49.504 145.76 49.248C145.888 48.9493 145.952 48.0747 145.952 46.624V10.016C145.952 8.56533 145.888 7.712 145.76 7.456C145.632 7.15733 145.227 6.96533 144.544 6.88L141.024 6.432V4.64H153.312V24.544C154.549 22.5813 156.085 21.152 157.92 20.256C159.797 19.36 161.675 18.912 163.552 18.912C166.709 18.912 169.205 19.9147 171.04 21.92C172.875 23.9253 173.792 26.7627 173.792 30.432V46.624C173.792 48.0747 173.856 48.9493 173.984 49.248C174.112 49.504 174.517 49.6747 175.2 49.76L178.72 50.208ZM189.486 14.048C188.163 14.048 187.096 13.6427 186.286 12.832C185.475 11.9787 185.07 10.8907 185.07 9.568C185.07 8.24533 185.475 7.17867 186.286 6.368C187.096 5.55733 188.163 5.152 189.486 5.152C190.766 5.152 191.832 5.55733 192.686 6.368C193.539 7.17867 193.966 8.24533 193.966 9.568C193.966 10.8907 193.539 11.9787 192.686 12.832C191.832 13.6427 190.766 14.048 189.486 14.048ZM180.91 21.344V19.552H193.198V46.624C193.198 48.0747 193.262 48.9493 193.39 49.248C193.518 49.504 193.923 49.6747 194.606 49.76L198.126 50.208V52H180.91V50.208L184.43 49.76C185.112 49.6747 185.518 49.504 185.646 49.248C185.774 48.9493 185.838 48.0747 185.838 46.624V24.928C185.838 23.4773 185.774 22.624 185.646 22.368C185.518 22.0693 185.112 21.8773 184.43 21.792L180.91 21.344ZM233.237 50.4C232.554 51.04 231.722 51.5733 230.741 52C229.802 52.4267 228.65 52.64 227.285 52.64C225.536 52.64 224.064 52.256 222.869 51.488C221.717 50.72 220.949 49.632 220.565 48.224C219.157 49.76 217.6 50.8907 215.893 51.616C214.229 52.2987 212.522 52.64 210.773 52.64C207.829 52.64 205.632 51.8293 204.181 50.208C202.73 48.544 202.005 46.4747 202.005 44C202.005 41.4827 202.922 39.456 204.757 37.92C206.592 36.3413 209.834 35.552 214.485 35.552H220.309V30.368C220.309 26.8267 219.84 24.416 218.901 23.136C218.005 21.8133 216.746 21.152 215.125 21.152C214.058 21.152 213.077 21.4293 212.181 21.984C211.285 22.496 210.645 23.4773 210.261 24.928C209.92 26.336 209.984 28.384 210.453 31.072L203.413 30.048C203.072 28.0853 203.285 26.272 204.053 24.608C204.864 22.9013 206.208 21.536 208.085 20.512C209.962 19.4453 212.352 18.912 215.253 18.912C218.538 18.912 221.077 19.4453 222.869 20.512C224.661 21.5787 225.898 22.9867 226.581 24.736C227.306 26.4853 227.669 28.3627 227.669 30.368V45.152C227.669 47.328 227.861 48.6933 228.245 49.248C228.629 49.8027 229.056 50.08 229.525 50.08C230.293 50.08 231.146 49.632 232.085 48.736L233.237 50.4ZM213.589 49.248C214.698 49.248 215.786 48.9707 216.853 48.416C217.962 47.8187 219.114 46.7307 220.309 45.152V37.792H215.509C213.418 37.792 211.904 38.2827 210.965 39.264C210.026 40.2453 209.557 41.7813 209.557 43.872C209.557 45.5787 209.898 46.9013 210.581 47.84C211.264 48.7787 212.266 49.248 213.589 49.248Z"/>
</mask>
<path d="M19.6 50.4C22.16 50.4 24.272 49.8027 25.936 48.608C27.6427 47.3707 28.496 45.4507 28.496 42.848C28.496 40.928 27.92 39.328 26.768 38.048C25.6587 36.768 23.6533 35.7013 20.752 34.848L14.8 33.056C11.8133 32.16 9.50933 30.624 7.888 28.448C6.30933 26.2293 5.52 23.4773 5.52 20.192C5.52 18.016 6.01067 15.9893 6.992 14.112C8.016 12.2347 9.552 10.72 11.6 9.568C13.6907 8.416 16.3147 7.84 19.472 7.84C22.928 7.84 25.7227 8.48 27.856 9.76C29.9893 10.9973 31.4827 12.6187 32.336 14.624C33.1893 16.6293 33.4027 18.784 32.976 21.088L25.616 22.432C26.2987 18.464 26 15.4133 24.72 13.28C23.4827 11.1467 21.456 10.08 18.64 10.08C16.464 10.08 14.7147 10.72 13.392 12C12.112 13.28 11.472 15.1147 11.472 17.504C11.472 19.4667 12.0267 21.1947 13.136 22.688C14.288 24.1813 16.1653 25.3333 18.768 26.144L24.72 27.936C27.9627 28.8747 30.3947 30.304 32.016 32.224C33.6373 34.1013 34.448 36.7253 34.448 40.096C34.448 42.4853 33.8933 44.64 32.784 46.56C31.7173 48.4373 30.0747 49.9307 27.856 51.04C25.68 52.1067 22.9493 52.64 19.664 52.64C17.2747 52.64 15.0133 52.2987 12.88 51.616C10.7467 50.8907 8.95467 49.7173 7.504 48.096C6.096 46.4747 5.2 44.2773 4.816 41.504L9.104 39.968C9.31733 42.6987 9.91467 44.832 10.896 46.368C11.92 47.8613 13.1787 48.9067 14.672 49.504C16.208 50.1013 17.8507 50.4 19.6 50.4ZM38.9615 21.344V19.552H50.8655V24.864C52.1028 22.8587 53.4468 21.3653 54.8975 20.384C56.3482 19.4027 58.0762 18.912 60.0815 18.912C63.6655 18.912 66.5028 20.3413 68.5935 23.2C70.7268 26.016 71.7935 29.984 71.7935 35.104V36.384C71.7935 41.3333 70.5775 45.28 68.1455 48.224C65.7135 51.168 62.3428 52.64 58.0335 52.64C55.4735 52.64 53.2122 52 51.2495 50.72V60.256C51.2495 61.7067 51.3135 62.56 51.4415 62.816C51.5695 63.1147 51.9748 63.3067 52.6575 63.392L57.4575 63.84V65.632H38.9615V63.84L42.4815 63.392C43.1642 63.3067 43.5695 63.1147 43.6975 62.816C43.8255 62.56 43.8895 61.7067 43.8895 60.256V24.928C43.8895 23.4773 43.8255 22.624 43.6975 22.368C43.5695 22.0693 43.1642 21.8773 42.4815 21.792L38.9615 21.344ZM58.4175 21.728C57.3508 21.728 56.2202 22.176 55.0255 23.072C53.8735 23.9253 52.6148 25.696 51.2495 28.384V47.712C52.8708 49.3333 54.8548 50.144 57.2015 50.144C59.5908 50.144 61.2975 49.0987 62.3215 47.008C63.3882 44.8747 63.9215 41.9733 63.9215 38.304V33.184C63.9215 29.216 63.4308 26.3147 62.4495 24.48C61.4682 22.6453 60.1242 21.728 58.4175 21.728ZM105.711 44.384C104.943 47.3707 103.514 49.504 101.423 50.784C99.3323 52.0213 96.9003 52.64 94.127 52.64C89.007 52.64 85.167 51.168 82.607 48.224C80.047 45.2373 78.767 41.2907 78.767 36.384V35.104C78.767 30.1973 79.9617 26.272 82.351 23.328C84.783 20.384 88.2817 18.912 92.847 18.912C95.407 18.912 97.6683 19.424 99.631 20.448C101.636 21.4293 103.194 22.8587 104.303 24.736C105.455 26.6133 106.031 28.896 106.031 31.584C106.031 32.224 105.988 32.9067 105.903 33.632C105.86 34.3573 105.754 35.0827 105.583 35.808H86.639V37.664C86.639 42.1867 87.279 45.4507 88.559 47.456C89.839 49.4187 91.9083 50.4 94.767 50.4C96.6017 50.4 98.159 49.8667 99.439 48.8C100.719 47.6907 101.444 45.8347 101.615 43.232L105.711 44.384ZM92.847 21.152C90.7563 21.152 89.199 22.112 88.175 24.032C87.151 25.952 86.639 29.1307 86.639 33.568H98.223C98.3937 32.7147 98.5003 31.9253 98.543 31.2C98.6283 30.432 98.671 29.728 98.671 29.088C98.671 26.3573 98.1377 24.352 97.071 23.072C96.0043 21.792 94.5963 21.152 92.847 21.152ZM125.314 39.904L120.898 38.88C118.039 38.1973 115.906 36.9813 114.498 35.232C113.133 33.44 112.45 31.328 112.45 28.896C112.45 27.104 112.834 25.4613 113.602 23.968C114.413 22.432 115.671 21.216 117.378 20.32C119.085 19.3813 121.303 18.912 124.034 18.912C126.978 18.912 129.367 19.3813 131.202 20.32C133.037 21.2587 134.338 22.496 135.106 24.032C135.874 25.568 136.109 27.2107 135.81 28.96L128.77 30.24C129.367 27.3387 129.197 25.0987 128.258 23.52C127.362 21.9413 125.847 21.152 123.714 21.152C122.221 21.152 120.983 21.6 120.002 22.496C119.021 23.3493 118.53 24.5867 118.53 26.208C118.53 27.7013 118.957 29.024 119.81 30.176C120.663 31.2853 121.922 32.032 123.586 32.416L128.002 33.44C131.159 34.1653 133.442 35.3173 134.85 36.896C136.258 38.432 136.962 40.352 136.962 42.656C136.962 45.5147 135.895 47.904 133.762 49.824C131.671 51.7013 128.535 52.64 124.354 52.64C122.903 52.64 121.303 52.4267 119.554 52C117.847 51.5307 116.269 50.6987 114.818 49.504C113.41 48.3093 112.386 46.6027 111.746 44.384L115.906 42.72C116.205 45.536 117.165 47.52 118.786 48.672C120.45 49.824 122.306 50.4 124.354 50.4C126.274 50.4 127.831 49.9733 129.026 49.12C130.263 48.224 130.882 46.944 130.882 45.28C130.882 44.128 130.477 43.0827 129.666 42.144C128.898 41.1627 127.447 40.416 125.314 39.904ZM178.72 50.208V52H161.504V50.208L165.024 49.76C165.707 49.6747 166.112 49.504 166.24 49.248C166.368 48.9493 166.432 48.0747 166.432 46.624V30.496C166.432 27.552 165.984 25.4187 165.088 24.096C164.235 22.7307 162.955 22.048 161.248 22.048C160.523 22.048 159.669 22.24 158.688 22.624C157.749 22.9653 156.789 23.6053 155.808 24.544C154.869 25.4827 154.037 26.8693 153.312 28.704V46.624C153.312 48.0747 153.376 48.9493 153.504 49.248C153.632 49.504 154.037 49.6747 154.72 49.76L158.24 50.208V52H141.024V50.208L144.544 49.76C145.227 49.6747 145.632 49.504 145.76 49.248C145.888 48.9493 145.952 48.0747 145.952 46.624V10.016C145.952 8.56533 145.888 7.712 145.76 7.456C145.632 7.15733 145.227 6.96533 144.544 6.88L141.024 6.432V4.64H153.312V24.544C154.549 22.5813 156.085 21.152 157.92 20.256C159.797 19.36 161.675 18.912 163.552 18.912C166.709 18.912 169.205 19.9147 171.04 21.92C172.875 23.9253 173.792 26.7627 173.792 30.432V46.624C173.792 48.0747 173.856 48.9493 173.984 49.248C174.112 49.504 174.517 49.6747 175.2 49.76L178.72 50.208ZM189.486 14.048C188.163 14.048 187.096 13.6427 186.286 12.832C185.475 11.9787 185.07 10.8907 185.07 9.568C185.07 8.24533 185.475 7.17867 186.286 6.368C187.096 5.55733 188.163 5.152 189.486 5.152C190.766 5.152 191.832 5.55733 192.686 6.368C193.539 7.17867 193.966 8.24533 193.966 9.568C193.966 10.8907 193.539 11.9787 192.686 12.832C191.832 13.6427 190.766 14.048 189.486 14.048ZM180.91 21.344V19.552H193.198V46.624C193.198 48.0747 193.262 48.9493 193.39 49.248C193.518 49.504 193.923 49.6747 194.606 49.76L198.126 50.208V52H180.91V50.208L184.43 49.76C185.112 49.6747 185.518 49.504 185.646 49.248C185.774 48.9493 185.838 48.0747 185.838 46.624V24.928C185.838 23.4773 185.774 22.624 185.646 22.368C185.518 22.0693 185.112 21.8773 184.43 21.792L180.91 21.344ZM233.237 50.4C232.554 51.04 231.722 51.5733 230.741 52C229.802 52.4267 228.65 52.64 227.285 52.64C225.536 52.64 224.064 52.256 222.869 51.488C221.717 50.72 220.949 49.632 220.565 48.224C219.157 49.76 217.6 50.8907 215.893 51.616C214.229 52.2987 212.522 52.64 210.773 52.64C207.829 52.64 205.632 51.8293 204.181 50.208C202.73 48.544 202.005 46.4747 202.005 44C202.005 41.4827 202.922 39.456 204.757 37.92C206.592 36.3413 209.834 35.552 214.485 35.552H220.309V30.368C220.309 26.8267 219.84 24.416 218.901 23.136C218.005 21.8133 216.746 21.152 215.125 21.152C214.058 21.152 213.077 21.4293 212.181 21.984C211.285 22.496 210.645 23.4773 210.261 24.928C209.92 26.336 209.984 28.384 210.453 31.072L203.413 30.048C203.072 28.0853 203.285 26.272 204.053 24.608C204.864 22.9013 206.208 21.536 208.085 20.512C209.962 19.4453 212.352 18.912 215.253 18.912C218.538 18.912 221.077 19.4453 222.869 20.512C224.661 21.5787 225.898 22.9867 226.581 24.736C227.306 26.4853 227.669 28.3627 227.669 30.368V45.152C227.669 47.328 227.861 48.6933 228.245 49.248C228.629 49.8027 229.056 50.08 229.525 50.08C230.293 50.08 231.146 49.632 232.085 48.736L233.237 50.4ZM213.589 49.248C214.698 49.248 215.786 48.9707 216.853 48.416C217.962 47.8187 219.114 46.7307 220.309 45.152V37.792H215.509C213.418 37.792 211.904 38.2827 210.965 39.264C210.026 40.2453 209.557 41.7813 209.557 43.872C209.557 45.5787 209.898 46.9013 210.581 47.84C211.264 48.7787 212.266 49.248 213.589 49.248Z" fill="#B1EA92"/>
<path d="M19.6 50.4C22.16 50.4 24.272 49.8027 25.936 48.608C27.6427 47.3707 28.496 45.4507 28.496 42.848C28.496 40.928 27.92 39.328 26.768 38.048C25.6587 36.768 23.6533 35.7013 20.752 34.848L14.8 33.056C11.8133 32.16 9.50933 30.624 7.888 28.448C6.30933 26.2293 5.52 23.4773 5.52 20.192C5.52 18.016 6.01067 15.9893 6.992 14.112C8.016 12.2347 9.552 10.72 11.6 9.568C13.6907 8.416 16.3147 7.84 19.472 7.84C22.928 7.84 25.7227 8.48 27.856 9.76C29.9893 10.9973 31.4827 12.6187 32.336 14.624C33.1893 16.6293 33.4027 18.784 32.976 21.088L25.616 22.432C26.2987 18.464 26 15.4133 24.72 13.28C23.4827 11.1467 21.456 10.08 18.64 10.08C16.464 10.08 14.7147 10.72 13.392 12C12.112 13.28 11.472 15.1147 11.472 17.504C11.472 19.4667 12.0267 21.1947 13.136 22.688C14.288 24.1813 16.1653 25.3333 18.768 26.144L24.72 27.936C27.9627 28.8747 30.3947 30.304 32.016 32.224C33.6373 34.1013 34.448 36.7253 34.448 40.096C34.448 42.4853 33.8933 44.64 32.784 46.56C31.7173 48.4373 30.0747 49.9307 27.856 51.04C25.68 52.1067 22.9493 52.64 19.664 52.64C17.2747 52.64 15.0133 52.2987 12.88 51.616C10.7467 50.8907 8.95467 49.7173 7.504 48.096C6.096 46.4747 5.2 44.2773 4.816 41.504L9.104 39.968C9.31733 42.6987 9.91467 44.832 10.896 46.368C11.92 47.8613 13.1787 48.9067 14.672 49.504C16.208 50.1013 17.8507 50.4 19.6 50.4ZM38.9615 21.344V19.552H50.8655V24.864C52.1028 22.8587 53.4468 21.3653 54.8975 20.384C56.3482 19.4027 58.0762 18.912 60.0815 18.912C63.6655 18.912 66.5028 20.3413 68.5935 23.2C70.7268 26.016 71.7935 29.984 71.7935 35.104V36.384C71.7935 41.3333 70.5775 45.28 68.1455 48.224C65.7135 51.168 62.3428 52.64 58.0335 52.64C55.4735 52.64 53.2122 52 51.2495 50.72V60.256C51.2495 61.7067 51.3135 62.56 51.4415 62.816C51.5695 63.1147 51.9748 63.3067 52.6575 63.392L57.4575 63.84V65.632H38.9615V63.84L42.4815 63.392C43.1642 63.3067 43.5695 63.1147 43.6975 62.816C43.8255 62.56 43.8895 61.7067 43.8895 60.256V24.928C43.8895 23.4773 43.8255 22.624 43.6975 22.368C43.5695 22.0693 43.1642 21.8773 42.4815 21.792L38.9615 21.344ZM58.4175 21.728C57.3508 21.728 56.2202 22.176 55.0255 23.072C53.8735 23.9253 52.6148 25.696 51.2495 28.384V47.712C52.8708 49.3333 54.8548 50.144 57.2015 50.144C59.5908 50.144 61.2975 49.0987 62.3215 47.008C63.3882 44.8747 63.9215 41.9733 63.9215 38.304V33.184C63.9215 29.216 63.4308 26.3147 62.4495 24.48C61.4682 22.6453 60.1242 21.728 58.4175 21.728ZM105.711 44.384C104.943 47.3707 103.514 49.504 101.423 50.784C99.3323 52.0213 96.9003 52.64 94.127 52.64C89.007 52.64 85.167 51.168 82.607 48.224C80.047 45.2373 78.767 41.2907 78.767 36.384V35.104C78.767 30.1973 79.9617 26.272 82.351 23.328C84.783 20.384 88.2817 18.912 92.847 18.912C95.407 18.912 97.6683 19.424 99.631 20.448C101.636 21.4293 103.194 22.8587 104.303 24.736C105.455 26.6133 106.031 28.896 106.031 31.584C106.031 32.224 105.988 32.9067 105.903 33.632C105.86 34.3573 105.754 35.0827 105.583 35.808H86.639V37.664C86.639 42.1867 87.279 45.4507 88.559 47.456C89.839 49.4187 91.9083 50.4 94.767 50.4C96.6017 50.4 98.159 49.8667 99.439 48.8C100.719 47.6907 101.444 45.8347 101.615 43.232L105.711 44.384ZM92.847 21.152C90.7563 21.152 89.199 22.112 88.175 24.032C87.151 25.952 86.639 29.1307 86.639 33.568H98.223C98.3937 32.7147 98.5003 31.9253 98.543 31.2C98.6283 30.432 98.671 29.728 98.671 29.088C98.671 26.3573 98.1377 24.352 97.071 23.072C96.0043 21.792 94.5963 21.152 92.847 21.152ZM125.314 39.904L120.898 38.88C118.039 38.1973 115.906 36.9813 114.498 35.232C113.133 33.44 112.45 31.328 112.45 28.896C112.45 27.104 112.834 25.4613 113.602 23.968C114.413 22.432 115.671 21.216 117.378 20.32C119.085 19.3813 121.303 18.912 124.034 18.912C126.978 18.912 129.367 19.3813 131.202 20.32C133.037 21.2587 134.338 22.496 135.106 24.032C135.874 25.568 136.109 27.2107 135.81 28.96L128.77 30.24C129.367 27.3387 129.197 25.0987 128.258 23.52C127.362 21.9413 125.847 21.152 123.714 21.152C122.221 21.152 120.983 21.6 120.002 22.496C119.021 23.3493 118.53 24.5867 118.53 26.208C118.53 27.7013 118.957 29.024 119.81 30.176C120.663 31.2853 121.922 32.032 123.586 32.416L128.002 33.44C131.159 34.1653 133.442 35.3173 134.85 36.896C136.258 38.432 136.962 40.352 136.962 42.656C136.962 45.5147 135.895 47.904 133.762 49.824C131.671 51.7013 128.535 52.64 124.354 52.64C122.903 52.64 121.303 52.4267 119.554 52C117.847 51.5307 116.269 50.6987 114.818 49.504C113.41 48.3093 112.386 46.6027 111.746 44.384L115.906 42.72C116.205 45.536 117.165 47.52 118.786 48.672C120.45 49.824 122.306 50.4 124.354 50.4C126.274 50.4 127.831 49.9733 129.026 49.12C130.263 48.224 130.882 46.944 130.882 45.28C130.882 44.128 130.477 43.0827 129.666 42.144C128.898 41.1627 127.447 40.416 125.314 39.904ZM178.72 50.208V52H161.504V50.208L165.024 49.76C165.707 49.6747 166.112 49.504 166.24 49.248C166.368 48.9493 166.432 48.0747 166.432 46.624V30.496C166.432 27.552 165.984 25.4187 165.088 24.096C164.235 22.7307 162.955 22.048 161.248 22.048C160.523 22.048 159.669 22.24 158.688 22.624C157.749 22.9653 156.789 23.6053 155.808 24.544C154.869 25.4827 154.037 26.8693 153.312 28.704V46.624C153.312 48.0747 153.376 48.9493 153.504 49.248C153.632 49.504 154.037 49.6747 154.72 49.76L158.24 50.208V52H141.024V50.208L144.544 49.76C145.227 49.6747 145.632 49.504 145.76 49.248C145.888 48.9493 145.952 48.0747 145.952 46.624V10.016C145.952 8.56533 145.888 7.712 145.76 7.456C145.632 7.15733 145.227 6.96533 144.544 6.88L141.024 6.432V4.64H153.312V24.544C154.549 22.5813 156.085 21.152 157.92 20.256C159.797 19.36 161.675 18.912 163.552 18.912C166.709 18.912 169.205 19.9147 171.04 21.92C172.875 23.9253 173.792 26.7627 173.792 30.432V46.624C173.792 48.0747 173.856 48.9493 173.984 49.248C174.112 49.504 174.517 49.6747 175.2 49.76L178.72 50.208ZM189.486 14.048C188.163 14.048 187.096 13.6427 186.286 12.832C185.475 11.9787 185.07 10.8907 185.07 9.568C185.07 8.24533 185.475 7.17867 186.286 6.368C187.096 5.55733 188.163 5.152 189.486 5.152C190.766 5.152 191.832 5.55733 192.686 6.368C193.539 7.17867 193.966 8.24533 193.966 9.568C193.966 10.8907 193.539 11.9787 192.686 12.832C191.832 13.6427 190.766 14.048 189.486 14.048ZM180.91 21.344V19.552H193.198V46.624C193.198 48.0747 193.262 48.9493 193.39 49.248C193.518 49.504 193.923 49.6747 194.606 49.76L198.126 50.208V52H180.91V50.208L184.43 49.76C185.112 49.6747 185.518 49.504 185.646 49.248C185.774 48.9493 185.838 48.0747 185.838 46.624V24.928C185.838 23.4773 185.774 22.624 185.646 22.368C185.518 22.0693 185.112 21.8773 184.43 21.792L180.91 21.344ZM233.237 50.4C232.554 51.04 231.722 51.5733 230.741 52C229.802 52.4267 228.65 52.64 227.285 52.64C225.536 52.64 224.064 52.256 222.869 51.488C221.717 50.72 220.949 49.632 220.565 48.224C219.157 49.76 217.6 50.8907 215.893 51.616C214.229 52.2987 212.522 52.64 210.773 52.64C207.829 52.64 205.632 51.8293 204.181 50.208C202.73 48.544 202.005 46.4747 202.005 44C202.005 41.4827 202.922 39.456 204.757 37.92C206.592 36.3413 209.834 35.552 214.485 35.552H220.309V30.368C220.309 26.8267 219.84 24.416 218.901 23.136C218.005 21.8133 216.746 21.152 215.125 21.152C214.058 21.152 213.077 21.4293 212.181 21.984C211.285 22.496 210.645 23.4773 210.261 24.928C209.92 26.336 209.984 28.384 210.453 31.072L203.413 30.048C203.072 28.0853 203.285 26.272 204.053 24.608C204.864 22.9013 206.208 21.536 208.085 20.512C209.962 19.4453 212.352 18.912 215.253 18.912C218.538 18.912 221.077 19.4453 222.869 20.512C224.661 21.5787 225.898 22.9867 226.581 24.736C227.306 26.4853 227.669 28.3627 227.669 30.368V45.152C227.669 47.328 227.861 48.6933 228.245 49.248C228.629 49.8027 229.056 50.08 229.525 50.08C230.293 50.08 231.146 49.632 232.085 48.736L233.237 50.4ZM213.589 49.248C214.698 49.248 215.786 48.9707 216.853 48.416C217.962 47.8187 219.114 46.7307 220.309 45.152V37.792H215.509C213.418 37.792 211.904 38.2827 210.965 39.264C210.026 40.2453 209.557 41.7813 209.557 43.872C209.557 45.5787 209.898 46.9013 210.581 47.84C211.264 48.7787 212.266 49.248 213.589 49.248Z" fill="#C7C3F6" fill-opacity="0.2"/>
<path d="M25.936 48.608L28.2688 51.8573L28.2764 51.8519L28.2839 51.8464L25.936 48.608ZM26.768 38.048L23.7452 40.6677L23.7698 40.696L23.7948 40.7239L26.768 38.048ZM20.752 34.848L19.5988 38.6782L19.6111 38.6819L19.6233 38.6855L20.752 34.848ZM14.8 33.056L15.9532 29.2258L15.9494 29.2247L14.8 33.056ZM7.888 28.448L4.62884 30.767L4.65426 30.8028L4.68047 30.8379L7.888 28.448ZM6.992 14.112L3.48042 12.1966L3.46348 12.2276L3.4471 12.259L6.992 14.112ZM11.6 9.568L9.66958 6.06464L9.65423 6.0731L9.63895 6.0817L11.6 9.568ZM27.856 9.76L25.798 13.19L25.8235 13.2052L25.8491 13.2201L27.856 9.76ZM32.336 14.624L36.0166 13.0578L36.0166 13.0578L32.336 14.624ZM32.976 21.088L33.6946 25.0229L36.407 24.5276L36.9091 21.8164L32.976 21.088ZM25.616 22.432L21.6739 21.7538L20.7033 27.3952L26.3346 26.3669L25.616 22.432ZM24.72 13.28L21.2599 15.2869L21.2748 15.3125L21.29 15.338L24.72 13.28ZM13.392 12L10.6103 9.12559L10.5868 9.14839L10.5636 9.17157L13.392 12ZM13.136 22.688L9.92503 25.0733L9.94669 25.1025L9.96887 25.1312L13.136 22.688ZM18.768 26.144L17.5785 29.963L17.5966 29.9687L17.6148 29.9742L18.768 26.144ZM24.72 27.936L23.5668 31.7662L23.5873 31.7723L23.6078 31.7783L24.72 27.936ZM32.016 32.224L28.9599 34.8047L28.9742 34.8217L28.9887 34.8385L32.016 32.224ZM32.784 46.56L29.3205 44.5589L29.3133 44.5714L29.3062 44.584L32.784 46.56ZM27.856 51.04L29.6166 54.6317L29.6308 54.6248L29.6449 54.6177L27.856 51.04ZM12.88 51.616L11.5924 55.4031L11.6265 55.4147L11.6609 55.4257L12.88 51.616ZM7.504 48.096L4.48387 50.7187L4.50329 50.7411L4.52303 50.7632L7.504 48.096ZM4.816 41.504L3.46709 37.7383L0.408153 38.834L0.853801 42.0526L4.816 41.504ZM9.104 39.968L13.0918 39.6564L12.6841 34.4367L7.7551 36.2023L9.104 39.968ZM10.896 46.368L7.52522 48.5216L7.56027 48.5764L7.59708 48.6301L10.896 46.368ZM14.672 49.504L13.1864 53.2179L13.2043 53.225L13.2222 53.232L14.672 49.504ZM19.6 50.4V54.4C22.7859 54.4 25.7715 53.6503 28.2688 51.8573L25.936 48.608L23.6032 45.3587C22.7725 45.9551 21.5341 46.4 19.6 46.4V50.4ZM25.936 48.608L28.2839 51.8464C31.274 49.6786 32.496 46.3954 32.496 42.848H28.496H24.496C24.496 44.5059 24.0113 45.0628 23.5881 45.3696L25.936 48.608ZM28.496 42.848H32.496C32.496 40.0622 31.6317 37.4728 29.7412 35.3721L26.768 38.048L23.7948 40.7239C24.2083 41.1832 24.496 41.7938 24.496 42.848H28.496ZM26.768 38.048L29.7908 35.4283C27.9219 33.2719 25.0155 31.9326 21.8807 31.0105L20.752 34.848L19.6233 38.6855C22.2911 39.4701 23.3955 40.2641 23.7452 40.6677L26.768 38.048ZM20.752 34.848L21.9052 31.0178L15.9532 29.2258L14.8 33.056L13.6468 36.8862L19.5988 38.6782L20.752 34.848ZM14.8 33.056L15.9494 29.2247C13.6581 28.5373 12.1291 27.4452 11.0955 26.0581L7.888 28.448L4.68047 30.8379C6.88956 33.8028 9.96862 35.7827 13.6506 36.8873L14.8 33.056ZM7.888 28.448L11.1472 26.129C10.1429 24.7175 9.52 22.8213 9.52 20.192H5.52H1.52C1.52 24.1334 2.4758 27.7411 4.62884 30.767L7.888 28.448ZM5.52 20.192H9.52C9.52 18.6431 9.86286 17.2545 10.5369 15.965L6.992 14.112L3.4471 12.259C2.15848 14.7242 1.52 17.3889 1.52 20.192H5.52ZM6.992 14.112L10.5036 16.0274C11.1332 14.873 12.1001 13.8761 13.561 13.0543L11.6 9.568L9.63895 6.0817C7.0039 7.56391 4.89876 9.59629 3.48042 12.1966L6.992 14.112ZM11.6 9.568L13.5304 13.0713C14.8695 12.3335 16.7794 11.84 19.472 11.84V7.84V3.84C15.85 3.84 12.5118 4.49851 9.66958 6.06464L11.6 9.568ZM19.472 7.84V11.84C22.4727 11.84 24.4828 12.4008 25.798 13.19L27.856 9.76L29.914 6.33003C26.9625 4.55915 23.3833 3.84 19.472 3.84V7.84ZM27.856 9.76L25.8491 13.2201C27.3376 14.0834 28.1845 15.0835 28.6554 16.1902L32.336 14.624L36.0166 13.0578C34.7809 10.1538 32.6411 7.91125 29.8629 6.29987L27.856 9.76ZM32.336 14.624L28.6554 16.1902C29.1775 17.4172 29.3377 18.7678 29.0429 20.3596L32.976 21.088L36.9091 21.8164C37.4677 18.8002 37.2012 15.8415 36.0166 13.0578L32.336 14.624ZM32.976 21.088L32.2574 17.1531L24.8974 18.4971L25.616 22.432L26.3346 26.3669L33.6946 25.0229L32.976 21.088ZM25.616 22.432L29.5581 23.1102C30.309 18.7455 30.1482 14.5524 28.15 11.222L24.72 13.28L21.29 15.338C21.8518 16.2742 22.2883 18.1825 21.6739 21.7538L25.616 22.432ZM24.72 13.28L28.1801 11.2731C26.1134 7.70983 22.6398 6.08 18.64 6.08V10.08V14.08C20.2722 14.08 20.8519 14.5835 21.2599 15.2869L24.72 13.28ZM18.64 10.08V6.08C15.6282 6.08 12.8128 6.99416 10.6103 9.12559L13.392 12L16.1737 14.8744C16.6165 14.4458 17.2998 14.08 18.64 14.08V10.08ZM13.392 12L10.5636 9.17157C8.31667 11.4185 7.472 14.4057 7.472 17.504H11.472H15.472C15.472 15.8236 15.9073 15.1415 16.2204 14.8284L13.392 12ZM11.472 17.504H7.472C7.472 20.2754 8.27405 22.8508 9.92503 25.0733L13.136 22.688L16.347 20.3027C15.7793 19.5385 15.472 18.6579 15.472 17.504H11.472ZM13.136 22.688L9.96887 25.1312C11.8013 27.5066 14.5254 29.0121 17.5785 29.963L18.768 26.144L19.9575 22.325C17.8053 21.6546 16.7747 20.856 16.3031 20.2448L13.136 22.688ZM18.768 26.144L17.6148 29.9742L23.5668 31.7662L24.72 27.936L25.8732 24.1058L19.9212 22.3138L18.768 26.144ZM24.72 27.936L23.6078 31.7783C26.3467 32.5711 27.9954 33.6626 28.9599 34.8047L32.016 32.224L35.0721 29.6433C32.7939 26.9454 29.5787 25.1782 25.8322 24.0937L24.72 27.936ZM32.016 32.224L28.9887 34.8385C29.7884 35.7644 30.448 37.3393 30.448 40.096H34.448H38.448C38.448 36.1113 37.4863 32.4383 35.0433 29.6095L32.016 32.224ZM34.448 40.096H30.448C30.448 41.839 30.0513 43.2942 29.3205 44.5589L32.784 46.56L36.2475 48.5611C37.7354 45.9858 38.448 43.1316 38.448 40.096H34.448ZM32.784 46.56L29.3062 44.584C28.6873 45.6733 27.6851 46.6533 26.0671 47.4623L27.856 51.04L29.6449 54.6177C32.4642 53.208 34.7474 51.2014 36.2618 48.536L32.784 46.56ZM27.856 51.04L26.0954 47.4483C24.6265 48.1684 22.545 48.64 19.664 48.64V52.64V56.64C23.3536 56.64 26.7335 56.045 29.6166 54.6317L27.856 51.04ZM19.664 52.64V48.64C17.6608 48.64 15.8129 48.3547 14.0991 47.8063L12.88 51.616L11.6609 55.4257C14.2138 56.2426 16.8885 56.64 19.664 56.64V52.64ZM12.88 51.616L14.1676 47.8289C12.6614 47.3168 11.4601 46.5187 10.485 45.4288L7.504 48.096L4.52303 50.7632C6.44922 52.916 8.83192 54.4645 11.5924 55.4031L12.88 51.616ZM7.504 48.096L10.5241 45.4733C9.75794 44.591 9.08769 43.1906 8.7782 40.9554L4.816 41.504L0.853801 42.0526C1.31231 45.3641 2.43406 48.3584 4.48387 50.7187L7.504 48.096ZM4.816 41.504L6.16491 45.2697L10.4529 43.7337L9.104 39.968L7.7551 36.2023L3.46709 37.7383L4.816 41.504ZM9.104 39.968L5.11615 40.2795C5.35703 43.3627 6.05624 46.2223 7.52522 48.5216L10.896 46.368L14.2668 44.2144C13.7731 43.4417 13.2776 42.0346 13.0918 39.6564L9.104 39.968ZM10.896 46.368L7.59708 48.6301C9.01036 50.6911 10.8682 52.2906 13.1864 53.2179L14.672 49.504L16.1576 45.7901C15.4891 45.5227 14.8296 45.0315 14.1949 44.1059L10.896 46.368ZM14.672 49.504L13.2222 53.232C15.2483 54.0199 17.3855 54.4 19.6 54.4V50.4V46.4C18.3158 46.4 17.1677 46.1827 16.1218 45.776L14.672 49.504ZM38.9615 21.344H34.9615V24.8672L38.4565 25.312L38.9615 21.344ZM38.9615 19.552V15.552H34.9615V19.552H38.9615ZM50.8655 19.552H54.8655V15.552H50.8655V19.552ZM50.8655 24.864H46.8655V38.9642L54.2696 26.9644L50.8655 24.864ZM54.8975 20.384L52.6563 17.0709L54.8975 20.384ZM68.5935 23.2L65.3648 25.5613L65.3847 25.5885L65.4051 25.6154L68.5935 23.2ZM68.1455 48.224L65.0617 45.6765L65.0617 45.6765L68.1455 48.224ZM51.2495 50.72L53.4346 47.3696L47.2495 43.3358V50.72H51.2495ZM51.4415 62.816L55.1181 61.2403L55.0718 61.1323L55.0192 61.0271L51.4415 62.816ZM52.6575 63.392L52.1614 67.3611L52.2235 67.3689L52.2858 67.3747L52.6575 63.392ZM57.4575 63.84H61.4575V60.1959L57.8292 59.8573L57.4575 63.84ZM57.4575 65.632V69.632H61.4575V65.632H57.4575ZM38.9615 65.632H34.9615V69.632H38.9615V65.632ZM38.9615 63.84L38.4565 59.872L34.9615 60.3168V63.84H38.9615ZM42.4815 63.392L41.9854 59.4229L41.9765 59.424L42.4815 63.392ZM43.6975 62.816L40.1198 61.0272L40.0672 61.1323L40.0209 61.2403L43.6975 62.816ZM43.6975 22.368L40.0209 23.9437L40.0672 24.0517L40.1198 24.1568L43.6975 22.368ZM42.4815 21.792L41.9765 25.76L41.9854 25.7611L42.4815 21.792ZM55.0255 23.072L57.4064 26.2862L57.416 26.2791L57.4255 26.272L55.0255 23.072ZM51.2495 28.384L47.6832 26.5725L47.2495 27.4264V28.384H51.2495ZM51.2495 47.712H47.2495V49.3689L48.4211 50.5404L51.2495 47.712ZM62.3215 47.008L58.7438 45.2191L58.7365 45.2338L58.7292 45.2485L62.3215 47.008ZM62.4495 24.48L58.9224 26.3666L58.9224 26.3666L62.4495 24.48ZM38.9615 21.344H42.9615V19.552H38.9615H34.9615V21.344H38.9615ZM38.9615 19.552V23.552H50.8655V19.552V15.552H38.9615V19.552ZM50.8655 19.552H46.8655V24.864H50.8655H54.8655V19.552H50.8655ZM50.8655 24.864L54.2696 26.9644C55.3068 25.2835 56.2895 24.2716 57.1387 23.6971L54.8975 20.384L52.6563 17.0709C50.6041 18.4591 48.8989 20.4338 47.4614 22.7636L50.8655 24.864ZM54.8975 20.384L57.1387 23.6971C57.8352 23.226 58.7557 22.912 60.0815 22.912V18.912V14.912C57.3967 14.912 54.8611 15.5794 52.6563 17.0709L54.8975 20.384ZM60.0815 18.912V22.912C62.4076 22.912 64.038 23.7471 65.3648 25.5613L68.5935 23.2L71.8222 20.8387C68.9676 16.9356 64.9234 14.912 60.0815 14.912V18.912ZM68.5935 23.2L65.4051 25.6154C66.822 27.4857 67.7935 30.4783 67.7935 35.104H71.7935H75.7935C75.7935 29.4897 74.6317 24.5463 71.7819 20.7846L68.5935 23.2ZM71.7935 35.104H67.7935V36.384H71.7935H75.7935V35.104H71.7935ZM71.7935 36.384H67.7935C67.7935 40.683 66.745 43.6387 65.0617 45.6765L68.1455 48.224L71.2293 50.7715C74.41 46.9213 75.7935 41.9837 75.7935 36.384H71.7935ZM68.1455 48.224L65.0617 45.6765C63.493 47.5753 61.3223 48.64 58.0335 48.64V52.64V56.64C63.3633 56.64 67.934 54.7607 71.2293 50.7715L68.1455 48.224ZM58.0335 52.64V48.64C56.1747 48.64 54.6874 48.1866 53.4346 47.3696L51.2495 50.72L49.0644 54.0704C51.7369 55.8134 54.7723 56.64 58.0335 56.64V52.64ZM51.2495 50.72H47.2495V60.256H51.2495H55.2495V50.72H51.2495ZM51.2495 60.256H47.2495C47.2495 61.023 47.2659 61.7122 47.3087 62.2832C47.3299 62.5663 47.362 62.8816 47.4161 63.1942C47.4555 63.4216 47.5605 63.9983 47.8638 64.6049L51.4415 62.816L55.0192 61.0271C55.1591 61.307 55.226 61.5323 55.252 61.6267C55.2823 61.7362 55.2955 61.8103 55.2989 61.8298C55.305 61.865 55.2971 61.8284 55.2863 61.6848C55.2651 61.4025 55.2495 60.9397 55.2495 60.256H51.2495ZM51.4415 62.816L47.7649 64.3917C48.3379 65.7286 49.3808 66.4445 50.1292 66.799C50.8633 67.1467 51.5985 67.2907 52.1614 67.3611L52.6575 63.392L53.1536 59.4229C53.0339 59.4079 53.225 59.4133 53.5538 59.569C53.8968 59.7315 54.6731 60.2021 55.1181 61.2403L51.4415 62.816ZM52.6575 63.392L52.2858 67.3747L57.0858 67.8227L57.4575 63.84L57.8292 59.8573L53.0292 59.4093L52.6575 63.392ZM57.4575 63.84H53.4575V65.632H57.4575H61.4575V63.84H57.4575ZM57.4575 65.632V61.632H38.9615V65.632V69.632H57.4575V65.632ZM38.9615 65.632H42.9615V63.84H38.9615H34.9615V65.632H38.9615ZM38.9615 63.84L39.4665 67.808L42.9865 67.36L42.4815 63.392L41.9765 59.424L38.4565 59.872L38.9615 63.84ZM42.4815 63.392L42.9776 67.3611C43.5405 67.2907 44.2757 67.1467 45.0098 66.799C45.7582 66.4445 46.8011 65.7286 47.3741 64.3917L43.6975 62.816L40.0209 61.2403C40.4659 60.2021 41.2422 59.7315 41.5852 59.569C41.914 59.4133 42.1051 59.4079 41.9854 59.4229L42.4815 63.392ZM43.6975 62.816L47.2752 64.6049C47.5785 63.9983 47.6835 63.4216 47.7229 63.1942C47.777 62.8816 47.8091 62.5663 47.8303 62.2832C47.8731 61.7122 47.8895 61.023 47.8895 60.256H43.8895H39.8895C39.8895 60.9397 39.8739 61.4025 39.8527 61.6848C39.8419 61.8284 39.834 61.865 39.8401 61.8298C39.8435 61.8103 39.8567 61.7362 39.887 61.6267C39.913 61.5323 39.9799 61.307 40.1198 61.0272L43.6975 62.816ZM43.8895 60.256H47.8895V24.928H43.8895H39.8895V60.256H43.8895ZM43.8895 24.928H47.8895C47.8895 24.161 47.8731 23.4718 47.8303 22.9008C47.8091 22.6177 47.777 22.3024 47.7229 21.9898C47.6835 21.7624 47.5785 21.1857 47.2752 20.5791L43.6975 22.368L40.1198 24.1568C39.9799 23.877 39.913 23.6517 39.887 23.5573C39.8567 23.4478 39.8435 23.3737 39.8401 23.3542C39.834 23.319 39.8419 23.3556 39.8527 23.4992C39.8739 23.7815 39.8895 24.2443 39.8895 24.928H43.8895ZM43.6975 22.368L47.3741 20.7923C46.8011 19.4554 45.7582 18.7395 45.0098 18.385C44.2757 18.0373 43.5405 17.8932 42.9776 17.8229L42.4815 21.792L41.9854 25.7611C42.1051 25.7761 41.914 25.7707 41.5852 25.6149C41.2422 25.4525 40.4659 24.9819 40.0209 23.9437L43.6975 22.368ZM42.4815 21.792L42.9865 17.824L39.4665 17.376L38.9615 21.344L38.4565 25.312L41.9765 25.76L42.4815 21.792ZM58.4175 21.728V17.728C56.1995 17.728 54.2423 18.6594 52.6255 19.872L55.0255 23.072L57.4255 26.272C58.198 25.6926 58.5022 25.728 58.4175 25.728V21.728ZM55.0255 23.072L52.6446 19.8578C50.6914 21.3046 49.0854 23.8119 47.6832 26.5725L51.2495 28.384L54.8158 30.1955C56.1443 27.5801 57.0556 26.5461 57.4064 26.2862L55.0255 23.072ZM51.2495 28.384H47.2495V47.712H51.2495H55.2495V28.384H51.2495ZM51.2495 47.712L48.4211 50.5404C50.812 52.9314 53.8218 54.144 57.2015 54.144V50.144V46.144C55.8878 46.144 54.9296 45.7353 54.0779 44.8836L51.2495 47.712ZM57.2015 50.144V54.144C58.9895 54.144 60.7681 53.7477 62.3628 52.771C63.9636 51.7905 65.1233 50.3814 65.9138 48.7675L62.3215 47.008L58.7292 45.2485C58.4957 45.7253 58.29 45.8842 58.1843 45.949C58.0722 46.0176 57.8029 46.144 57.2015 46.144V50.144ZM62.3215 47.008L65.8992 48.7969C67.3532 45.889 67.9215 42.2912 67.9215 38.304H63.9215H59.9215C59.9215 41.6554 59.4232 43.8604 58.7438 45.2191L62.3215 47.008ZM63.9215 38.304H67.9215V33.184H63.9215H59.9215V38.304H63.9215ZM63.9215 33.184H67.9215C67.9215 29.0533 67.4391 25.3276 65.9766 22.5934L62.4495 24.48L58.9224 26.3666C59.4226 27.3018 59.9215 29.3787 59.9215 33.184H63.9215ZM62.4495 24.48L65.9766 22.5934C64.4811 19.7974 61.9488 17.728 58.4175 17.728V21.728V25.728C58.4818 25.728 58.4957 25.736 58.4777 25.7306C58.458 25.7246 58.4457 25.7165 58.4505 25.7198C58.463 25.7283 58.6531 25.8633 58.9224 26.3666L62.4495 24.48ZM105.711 44.384L109.585 45.3802L110.559 41.5923L106.794 40.5334L105.711 44.384ZM101.423 50.784L103.46 54.2263L103.486 54.211L103.512 54.1954L101.423 50.784ZM82.607 48.224L79.57 50.8272L79.5792 50.838L79.5886 50.8487L82.607 48.224ZM82.351 23.328L79.2672 20.7805L79.2561 20.7939L79.2452 20.8073L82.351 23.328ZM99.631 20.448L97.7807 23.9943L97.8265 24.0182L97.8728 24.0409L99.631 20.448ZM104.303 24.736L100.859 26.7709L100.876 26.7996L100.894 26.8281L104.303 24.736ZM105.903 33.632L101.93 33.1646L101.917 33.2806L101.91 33.3971L105.903 33.632ZM105.583 35.808V39.808H108.751L109.477 36.7242L105.583 35.808ZM86.639 35.808V31.808H82.639V35.808H86.639ZM88.559 47.456L85.1873 49.6081L85.1979 49.6247L85.2086 49.6411L88.559 47.456ZM99.439 48.8L102 51.8729L102.029 51.8481L102.059 51.8228L99.439 48.8ZM101.615 43.232L102.698 39.3814L97.9465 38.0451L97.6236 42.9703L101.615 43.232ZM88.175 24.032L91.7044 25.9144L88.175 24.032ZM86.639 33.568H82.639V37.568H86.639V33.568ZM98.223 33.568V37.568H101.502L102.145 34.3525L98.223 33.568ZM98.543 31.2L94.5675 30.7583L94.556 30.8615L94.5499 30.9651L98.543 31.2ZM105.711 44.384L101.837 43.3878C101.258 45.6404 100.325 46.7662 99.3344 47.3726L101.423 50.784L103.512 54.1954C106.702 52.2418 108.628 49.1009 109.585 45.3802L105.711 44.384ZM101.423 50.784L99.3857 47.3417C97.9952 48.1647 96.2869 48.64 94.127 48.64V52.64V56.64C97.5138 56.64 100.67 55.878 103.46 54.2263L101.423 50.784ZM94.127 52.64V48.64C89.7804 48.64 87.2054 47.4163 85.6254 45.5993L82.607 48.224L79.5886 50.8487C83.1286 54.9197 88.2336 56.64 94.127 56.64V52.64ZM82.607 48.224L85.644 45.6208C83.8477 43.5251 82.767 40.5799 82.767 36.384H78.767H74.767C74.767 42.0014 76.2463 46.9495 79.57 50.8272L82.607 48.224ZM78.767 36.384H82.767V35.104H78.767H74.767V36.384H78.767ZM78.767 35.104H82.767C82.767 30.8417 83.7976 27.8931 85.4568 25.8487L82.351 23.328L79.2452 20.8073C76.1258 24.6509 74.767 29.5529 74.767 35.104H78.767ZM82.351 23.328L85.4348 25.8755C86.9566 24.0334 89.2167 22.912 92.847 22.912V18.912V14.912C87.3466 14.912 82.6094 16.7346 79.2672 20.7805L82.351 23.328ZM92.847 18.912V22.912C94.8639 22.912 96.4727 23.3119 97.7807 23.9943L99.631 20.448L101.481 16.9017C98.8639 15.5361 95.9501 14.912 92.847 14.912V18.912ZM99.631 20.448L97.8728 24.0409C99.1939 24.6874 100.157 25.5832 100.859 26.7709L104.303 24.736L107.747 22.7011C106.23 20.1341 104.079 18.1713 101.389 16.8551L99.631 20.448ZM104.303 24.736L100.894 26.8281C101.582 27.9502 102.031 29.4716 102.031 31.584H106.031H110.031C110.031 28.3204 109.328 25.2765 107.712 22.6439L104.303 24.736ZM106.031 31.584H102.031C102.031 32.0478 102 32.5732 101.93 33.1646L105.903 33.632L109.876 34.0994C109.977 33.2401 110.031 32.4002 110.031 31.584H106.031ZM105.903 33.632L101.91 33.3971C101.881 33.8871 101.809 34.3846 101.689 34.8918L105.583 35.808L109.477 36.7242C109.699 35.7807 109.84 34.8275 109.896 33.8669L105.903 33.632ZM105.583 35.808V31.808H86.639V35.808V39.808H105.583V35.808ZM86.639 35.808H82.639V37.664H86.639H90.639V35.808H86.639ZM86.639 37.664H82.639C82.639 42.3698 83.2689 46.6026 85.1873 49.6081L88.559 47.456L91.9307 45.3039C91.2891 44.2987 90.639 42.0036 90.639 37.664H86.639ZM88.559 47.456L85.2086 49.6411C87.3958 52.9948 90.8978 54.4 94.767 54.4V50.4V46.4C92.9188 46.4 92.2822 45.8425 91.9094 45.2709L88.559 47.456ZM94.767 50.4V54.4C97.4362 54.4 99.9268 53.6003 102 51.8729L99.439 48.8L96.8783 45.7271C96.3912 46.133 95.7671 46.4 94.767 46.4V50.4ZM99.439 48.8L102.059 51.8228C104.492 49.7141 105.403 46.599 105.606 43.4937L101.615 43.232L97.6236 42.9703C97.4859 45.0703 96.9462 45.6672 96.8193 45.7772L99.439 48.8ZM101.615 43.232L100.532 47.0826L104.628 48.2346L105.711 44.384L106.794 40.5334L102.698 39.3814L101.615 43.232ZM92.847 21.152V17.152C91.1686 17.152 89.5078 17.5449 88.012 18.467C86.5248 19.3838 85.4276 20.6833 84.6456 22.1496L88.175 24.032L91.7044 25.9144C91.9464 25.4607 92.1399 25.3202 92.21 25.277C92.2715 25.2391 92.4348 25.152 92.847 25.152V21.152ZM88.175 24.032L84.6456 22.1496C83.1299 24.9916 82.639 29.0222 82.639 33.568H86.639H90.639C90.639 29.2391 91.1721 26.9124 91.7044 25.9144L88.175 24.032ZM86.639 33.568V37.568H98.223V33.568V29.568H86.639V33.568ZM98.223 33.568L102.145 34.3525C102.345 33.352 102.481 32.3767 102.536 31.4349L98.543 31.2L94.5499 30.9651C94.52 31.474 94.4419 32.0773 94.3007 32.7835L98.223 33.568ZM98.543 31.2L102.519 31.6417C102.617 30.756 102.671 29.9021 102.671 29.088H98.671H94.671C94.671 29.5539 94.6397 30.108 94.5675 30.7583L98.543 31.2ZM98.671 29.088H102.671C102.671 25.9767 102.088 22.8446 100.144 20.5113L97.071 23.072L93.9981 25.6327C94.187 25.8594 94.671 26.738 94.671 29.088H98.671ZM97.071 23.072L100.144 20.5113C98.2748 18.2683 95.7155 17.152 92.847 17.152V21.152V25.152C93.4772 25.152 93.7339 25.3157 93.9981 25.6327L97.071 23.072ZM125.314 39.904L126.247 36.0145L126.233 36.0109L126.218 36.0074L125.314 39.904ZM120.898 38.88L119.969 42.7706L119.982 42.7736L119.994 42.7766L120.898 38.88ZM114.498 35.232L111.316 37.6562L111.349 37.6985L111.382 37.74L114.498 35.232ZM113.602 23.968L110.064 22.101L110.055 22.1197L110.045 22.1386L113.602 23.968ZM117.378 20.32L119.237 23.8616L119.272 23.8436L119.306 23.8249L117.378 20.32ZM131.202 20.32L133.024 16.759L133.024 16.759L131.202 20.32ZM135.106 24.032L131.528 25.8209L131.528 25.8209L135.106 24.032ZM135.81 28.96L136.526 32.8955L139.282 32.3944L139.753 29.6332L135.81 28.96ZM128.77 30.24L124.852 29.4334L123.658 35.2351L129.486 34.1755L128.77 30.24ZM128.258 23.52L124.779 25.4944L124.799 25.5296L124.82 25.5643L128.258 23.52ZM120.002 22.496L122.627 25.5144L122.663 25.4826L122.699 25.4499L120.002 22.496ZM119.81 30.176L116.596 32.5569L116.617 32.5861L116.64 32.6148L119.81 30.176ZM123.586 32.416L124.49 28.5194L124.485 28.5184L123.586 32.416ZM128.002 33.44L127.098 37.3366L127.106 37.3384L128.002 33.44ZM134.85 36.896L131.865 39.5585L131.883 39.5788L131.901 39.5989L134.85 36.896ZM133.762 49.824L136.435 52.8002L136.438 52.7972L133.762 49.824ZM119.554 52L118.493 55.8568L118.55 55.8723L118.606 55.8861L119.554 52ZM114.818 49.504L112.23 52.554L112.252 52.573L112.275 52.5917L114.818 49.504ZM111.746 44.384L110.26 40.6701L106.899 42.0145L107.903 45.4926L111.746 44.384ZM115.906 42.72L119.884 42.2981L119.326 37.0437L114.42 39.0061L115.906 42.72ZM118.786 48.672L116.469 51.9327L116.489 51.9469L116.509 51.9608L118.786 48.672ZM129.026 49.12L131.351 52.3749L131.362 52.3674L131.372 52.3598L129.026 49.12ZM129.666 42.144L126.516 44.6092L126.576 44.6853L126.639 44.7585L129.666 42.144ZM125.314 39.904L126.218 36.0074L121.802 34.9834L120.898 38.88L119.994 42.7766L124.41 43.8006L125.314 39.904ZM120.898 38.88L121.827 34.9894C119.563 34.4488 118.316 33.5958 117.614 32.724L114.498 35.232L111.382 37.74C113.496 40.3669 116.515 41.9459 119.969 42.7706L120.898 38.88ZM114.498 35.232L117.68 32.8078C116.888 31.7692 116.45 30.5262 116.45 28.896H112.45H108.45C108.45 32.1298 109.377 35.1108 111.316 37.6562L114.498 35.232ZM112.45 28.896H116.45C116.45 27.6965 116.702 26.6871 117.159 25.7974L113.602 23.968L110.045 22.1386C108.966 24.2356 108.45 26.5115 108.45 28.896H112.45ZM113.602 23.968L117.14 25.835C117.532 25.0917 118.164 24.4248 119.237 23.8616L117.378 20.32L115.519 16.7784C113.178 18.0072 111.293 19.7723 110.064 22.101L113.602 23.968ZM117.378 20.32L119.306 23.8249C120.232 23.3154 121.721 22.912 124.034 22.912V18.912V14.912C120.886 14.912 117.937 15.4472 115.45 16.8151L117.378 20.32ZM124.034 18.912V22.912C126.598 22.912 128.299 23.3277 129.38 23.881L131.202 20.32L133.024 16.759C130.436 15.435 127.358 14.912 124.034 14.912V18.912ZM131.202 20.32L129.38 23.881C130.611 24.511 131.213 25.1906 131.528 25.8209L135.106 24.032L138.684 22.2431C137.463 19.8014 135.462 18.0064 133.024 16.759L131.202 20.32ZM135.106 24.032L131.528 25.8209C131.902 26.5691 132.028 27.3461 131.867 28.2868L135.81 28.96L139.753 29.6332C140.19 27.0752 139.846 24.5669 138.684 22.2431L135.106 24.032ZM135.81 28.96L135.094 25.0245L128.054 26.3045L128.77 30.24L129.486 34.1755L136.526 32.8955L135.81 28.96ZM128.77 30.24L132.688 31.0466C133.37 27.7349 133.378 24.3046 131.696 21.4757L128.258 23.52L124.82 25.5643C125.015 25.8927 125.365 26.9424 124.852 29.4334L128.77 30.24ZM128.258 23.52L131.737 21.5456C129.993 18.4735 126.986 17.152 123.714 17.152V21.152V25.152C124.294 25.152 124.54 25.259 124.601 25.2912C124.633 25.3078 124.651 25.3217 124.667 25.3376C124.684 25.3547 124.725 25.3988 124.779 25.4944L128.258 23.52ZM123.714 21.152V17.152C121.356 17.152 119.116 17.8885 117.305 19.5421L120.002 22.496L122.699 25.4499C122.851 25.3115 123.086 25.152 123.714 25.152V21.152ZM120.002 22.496L117.377 19.4776C115.313 21.2723 114.53 23.7379 114.53 26.208H118.53H122.53C122.53 25.7952 122.593 25.5977 122.616 25.5385C122.628 25.5099 122.633 25.5042 122.629 25.5108C122.624 25.5177 122.621 25.5198 122.627 25.5144L120.002 22.496ZM118.53 26.208H114.53C114.53 28.5205 115.21 30.6859 116.596 32.5569L119.81 30.176L123.024 27.7951C122.703 27.3621 122.53 26.8822 122.53 26.208H118.53ZM119.81 30.176L116.64 32.6148C118.175 34.6105 120.325 35.7686 122.687 36.3136L123.586 32.416L124.485 28.5184C123.519 28.2954 123.152 27.9602 122.98 27.7372L119.81 30.176ZM123.586 32.416L122.682 36.3126L127.098 37.3366L128.002 33.44L128.906 29.5434L124.49 28.5194L123.586 32.416ZM128.002 33.44L127.106 37.3384C129.858 37.9706 131.231 38.8478 131.865 39.5585L134.85 36.896L137.835 34.2335C135.653 31.7869 132.461 30.3601 128.898 29.5415L128.002 33.44ZM134.85 36.896L131.901 39.5989C132.56 40.3169 132.962 41.2382 132.962 42.656H136.962H140.962C140.962 39.4658 139.956 36.5471 137.799 34.1931L134.85 36.896ZM136.962 42.656H132.962C132.962 44.3755 132.38 45.6859 131.086 46.8508L133.762 49.824L136.438 52.7972C139.41 50.1221 140.962 46.6538 140.962 42.656H136.962ZM133.762 49.824L131.089 46.8478C130.02 47.808 128.019 48.64 124.354 48.64V52.64V56.64C129.052 56.64 133.322 55.5947 136.435 52.8002L133.762 49.824ZM124.354 52.64V48.64C123.288 48.64 122.012 48.4823 120.502 48.1139L119.554 52L118.606 55.8861C120.595 56.3711 122.518 56.64 124.354 56.64V52.64ZM119.554 52L120.615 48.1432C119.484 47.8322 118.404 47.2756 117.361 46.4163L114.818 49.504L112.275 52.5917C114.133 54.1217 116.211 55.2292 118.493 55.8568L119.554 52ZM114.818 49.504L117.406 46.454C116.733 45.8831 116.066 44.9272 115.589 43.2754L111.746 44.384L107.903 45.4926C108.706 48.2781 110.087 50.7356 112.23 52.554L114.818 49.504ZM111.746 44.384L113.232 48.0979L117.392 46.4339L115.906 42.72L114.42 39.0061L110.26 40.6701L111.746 44.384ZM115.906 42.72L111.928 43.1419C112.295 46.6012 113.571 49.8732 116.469 51.9327L118.786 48.672L121.103 45.4113C120.759 45.1668 120.114 44.4708 119.884 42.2981L115.906 42.72ZM118.786 48.672L116.509 51.9608C118.851 53.5818 121.503 54.4 124.354 54.4V50.4V46.4C123.109 46.4 122.049 46.0662 121.063 45.3832L118.786 48.672ZM124.354 50.4V54.4C126.853 54.4 129.296 53.8426 131.351 52.3749L129.026 49.12L126.701 45.8651C126.366 46.1041 125.695 46.4 124.354 46.4V50.4ZM129.026 49.12L131.372 52.3598C133.752 50.6366 134.882 48.0933 134.882 45.28H130.882H126.882C126.882 45.6114 126.822 45.7352 126.817 45.7473C126.812 45.7578 126.806 45.7667 126.795 45.7802C126.782 45.7948 126.75 45.8298 126.68 45.8802L129.026 49.12ZM130.882 45.28H134.882C134.882 43.0913 134.079 41.1345 132.693 39.5295L129.666 42.144L126.639 44.7585C126.874 45.0308 126.882 45.1647 126.882 45.28H130.882ZM129.666 42.144L132.816 39.6788C131.204 37.619 128.662 36.5939 126.247 36.0145L125.314 39.904L124.381 43.7935C125.235 43.9987 125.809 44.218 126.171 44.4045C126.535 44.5918 126.58 44.691 126.516 44.6092L129.666 42.144ZM178.72 50.208H182.72V46.6848L179.225 46.24L178.72 50.208ZM178.72 52V56H182.72V52H178.72ZM161.504 52H157.504V56H161.504V52ZM161.504 50.208L160.999 46.24L157.504 46.6848V50.208H161.504ZM165.024 49.76L164.528 45.7909L164.519 45.792L165.024 49.76ZM166.24 49.248L169.818 51.0369L169.87 50.9317L169.917 50.8237L166.24 49.248ZM165.088 24.096L161.696 26.216L161.735 26.2784L161.776 26.3394L165.088 24.096ZM158.688 22.624L160.055 26.3832L160.1 26.3666L160.146 26.349L158.688 22.624ZM155.808 24.544L153.043 21.6534L153.011 21.6841L152.98 21.7156L155.808 24.544ZM153.312 28.704L149.592 27.2334L149.312 27.942V28.704H153.312ZM153.504 49.248L149.827 50.8237L149.874 50.9317L149.926 51.0369L153.504 49.248ZM154.72 49.76L155.225 45.792L155.216 45.7909L154.72 49.76ZM158.24 50.208H162.24V46.6848L158.745 46.24L158.24 50.208ZM158.24 52V56H162.24V52H158.24ZM141.024 52H137.024V56H141.024V52ZM141.024 50.208L140.519 46.24L137.024 46.6848V50.208H141.024ZM144.544 49.76L144.048 45.7909L144.039 45.792L144.544 49.76ZM145.76 49.248L149.338 51.0369L149.39 50.9317L149.437 50.8237L145.76 49.248ZM145.76 7.456L142.083 9.03168L142.13 9.13972L142.182 9.24486L145.76 7.456ZM144.544 6.88L144.039 10.848L144.048 10.8491L144.544 6.88ZM141.024 6.432H137.024V9.95518L140.519 10.4L141.024 6.432ZM141.024 4.64V0.639999H137.024V4.64H141.024ZM153.312 4.64H157.312V0.639999H153.312V4.64ZM153.312 24.544H149.312V38.3893L156.696 26.6772L153.312 24.544ZM157.92 20.256L156.197 16.6461L156.181 16.6538L156.165 16.6617L157.92 20.256ZM171.04 21.92L173.991 19.2199L173.991 19.2199L171.04 21.92ZM173.984 49.248L170.307 50.8237L170.354 50.9317L170.406 51.0369L173.984 49.248ZM175.2 49.76L175.705 45.792L175.696 45.7909L175.2 49.76ZM178.72 50.208H174.72V52H178.72H182.72V50.208H178.72ZM178.72 52V48H161.504V52V56H178.72V52ZM161.504 52H165.504V50.208H161.504H157.504V52H161.504ZM161.504 50.208L162.009 54.176L165.529 53.728L165.024 49.76L164.519 45.792L160.999 46.24L161.504 50.208ZM165.024 49.76L165.52 53.7291C166.045 53.6635 166.718 53.5384 167.392 53.2545C168.023 52.989 169.149 52.3738 169.818 51.0369L166.24 49.248L162.662 47.4591C163.203 46.3782 164.062 45.9763 164.288 45.8815C164.557 45.7683 164.686 45.7711 164.528 45.7909L165.024 49.76ZM166.24 49.248L169.917 50.8237C170.281 49.9729 170.346 49.0311 170.373 48.6599C170.416 48.0834 170.432 47.3928 170.432 46.624H166.432H162.432C162.432 47.3059 162.416 47.7779 162.395 48.0761C162.384 48.2262 162.375 48.2815 162.377 48.27C162.378 48.2622 162.386 48.2104 162.407 48.1279C162.426 48.0546 162.471 47.8873 162.563 47.6723L166.24 49.248ZM166.432 46.624H170.432V30.496H166.432H162.432V46.624H166.432ZM166.432 30.496H170.432C170.432 27.3323 169.986 24.1939 168.4 21.8526L165.088 24.096L161.776 26.3394C161.982 26.6434 162.432 27.7717 162.432 30.496H166.432ZM165.088 24.096L168.48 21.976C166.844 19.3589 164.234 18.048 161.248 18.048V22.048V26.048C161.561 26.048 161.639 26.1074 161.606 26.0894C161.595 26.0839 161.591 26.079 161.598 26.0855C161.606 26.0937 161.642 26.1299 161.696 26.216L165.088 24.096ZM161.248 22.048V18.048C159.852 18.048 158.484 18.4085 157.23 18.899L158.688 22.624L160.146 26.349C160.855 26.0715 161.193 26.048 161.248 26.048V22.048ZM158.688 22.624L157.321 18.8648C155.71 19.4508 154.289 20.4613 153.043 21.6534L155.808 24.544L158.573 27.4346C159.289 26.7494 159.789 26.4799 160.055 26.3832L158.688 22.624ZM155.808 24.544L152.98 21.7156C151.513 23.1819 150.43 25.1152 149.592 27.2334L153.312 28.704L157.032 30.1746C157.645 28.6235 158.225 27.7834 158.636 27.3724L155.808 24.544ZM153.312 28.704H149.312V46.624H153.312H157.312V28.704H153.312ZM153.312 46.624H149.312C149.312 47.3928 149.328 48.0834 149.371 48.6599C149.398 49.0311 149.463 49.9729 149.827 50.8237L153.504 49.248L157.181 47.6723C157.273 47.8873 157.318 48.0546 157.337 48.1279C157.358 48.2104 157.366 48.2622 157.367 48.27C157.369 48.2815 157.36 48.2262 157.349 48.0761C157.328 47.7779 157.312 47.3059 157.312 46.624H153.312ZM153.504 49.248L149.926 51.0369C150.595 52.3738 151.721 52.989 152.352 53.2545C153.026 53.5384 153.699 53.6635 154.224 53.7291L154.72 49.76L155.216 45.7909C155.058 45.7711 155.187 45.7683 155.456 45.8815C155.682 45.9763 156.541 46.3782 157.082 47.4591L153.504 49.248ZM154.72 49.76L154.215 53.728L157.735 54.176L158.24 50.208L158.745 46.24L155.225 45.792L154.72 49.76ZM158.24 50.208H154.24V52H158.24H162.24V50.208H158.24ZM158.24 52V48H141.024V52V56H158.24V52ZM141.024 52H145.024V50.208H141.024H137.024V52H141.024ZM141.024 50.208L141.529 54.176L145.049 53.728L144.544 49.76L144.039 45.792L140.519 46.24L141.024 50.208ZM144.544 49.76L145.04 53.7291C145.565 53.6635 146.238 53.5384 146.912 53.2545C147.543 52.989 148.669 52.3738 149.338 51.0369L145.76 49.248L142.182 47.4591C142.723 46.3782 143.582 45.9763 143.808 45.8815C144.077 45.7683 144.206 45.7711 144.048 45.7909L144.544 49.76ZM145.76 49.248L149.437 50.8237C149.801 49.9729 149.866 49.0311 149.893 48.6599C149.936 48.0834 149.952 47.3928 149.952 46.624H145.952H141.952C141.952 47.3059 141.936 47.7779 141.915 48.0761C141.904 48.2262 141.895 48.2815 141.897 48.27C141.898 48.2622 141.906 48.2104 141.927 48.1279C141.946 48.0546 141.991 47.8873 142.083 47.6723L145.76 49.248ZM145.952 46.624H149.952V10.016H145.952H141.952V46.624H145.952ZM145.952 10.016H149.952C149.952 9.24904 149.936 8.55983 149.893 7.98884C149.872 7.7057 149.839 7.39036 149.785 7.07783C149.746 6.8504 149.641 6.27369 149.338 5.66714L145.76 7.456L142.182 9.24486C142.042 8.96503 141.976 8.73967 141.949 8.64534C141.919 8.53579 141.906 8.46174 141.903 8.44216C141.897 8.40696 141.904 8.44363 141.915 8.58716C141.936 8.8695 141.952 9.33229 141.952 10.016H145.952ZM145.76 7.456L149.437 5.88032C148.864 4.54342 147.821 3.82751 147.072 3.47305C146.338 3.12528 145.603 2.98125 145.04 2.91089L144.544 6.88L144.048 10.8491C144.168 10.8641 143.976 10.8587 143.648 10.7029C143.305 10.5405 142.528 10.0699 142.083 9.03168L145.76 7.456ZM144.544 6.88L145.049 2.91201L141.529 2.46401L141.024 6.432L140.519 10.4L144.039 10.848L144.544 6.88ZM141.024 6.432H145.024V4.64H141.024H137.024V6.432H141.024ZM141.024 4.64V8.64H153.312V4.64V0.639999H141.024V4.64ZM153.312 4.64H149.312V24.544H153.312H157.312V4.64H153.312ZM153.312 24.544L156.696 26.6772C157.592 25.2556 158.596 24.3773 159.675 23.8503L157.92 20.256L156.165 16.6617C153.574 17.9267 151.507 19.9071 149.928 22.4108L153.312 24.544ZM157.92 20.256L159.643 23.8659C161.041 23.1987 162.333 22.912 163.552 22.912V18.912V14.912C161.017 14.912 158.554 15.5213 156.197 16.6461L157.92 20.256ZM163.552 18.912V22.912C165.786 22.912 167.137 23.5792 168.089 24.6201L171.04 21.92L173.991 19.2199C171.274 16.2501 167.633 14.912 163.552 14.912V18.912ZM171.04 21.92L168.089 24.6201C169.042 25.6623 169.792 27.407 169.792 30.432H173.792H177.792C177.792 26.1183 176.707 22.1883 173.991 19.2199L171.04 21.92ZM173.792 30.432H169.792V46.624H173.792H177.792V30.432H173.792ZM173.792 46.624H169.792C169.792 47.3928 169.808 48.0834 169.851 48.6599C169.878 49.0311 169.943 49.9729 170.307 50.8237L173.984 49.248L177.661 47.6723C177.753 47.8873 177.798 48.0546 177.817 48.1279C177.838 48.2104 177.846 48.2622 177.847 48.27C177.849 48.2815 177.84 48.2262 177.829 48.0761C177.808 47.7779 177.792 47.3059 177.792 46.624H173.792ZM173.984 49.248L170.406 51.0369C171.075 52.3738 172.201 52.989 172.832 53.2545C173.506 53.5384 174.179 53.6635 174.704 53.7291L175.2 49.76L175.696 45.7909C175.538 45.7711 175.667 45.7683 175.936 45.8815C176.162 45.9763 177.021 46.3782 177.562 47.4591L173.984 49.248ZM175.2 49.76L174.695 53.728L178.215 54.176L178.72 50.208L179.225 46.24L175.705 45.792L175.2 49.76ZM186.286 12.832L183.386 15.587L183.421 15.6242L183.457 15.6604L186.286 12.832ZM186.286 6.368L183.457 3.53957L183.457 3.53957L186.286 6.368ZM192.686 6.368L195.441 3.468L195.44 3.468L192.686 6.368ZM192.686 12.832L195.44 15.732L195.478 15.6967L195.514 15.6604L192.686 12.832ZM180.91 21.344H176.91V24.8672L180.404 25.312L180.91 21.344ZM180.91 19.552V15.552H176.91V19.552H180.91ZM193.198 19.552H197.198V15.552H193.198V19.552ZM193.39 49.248L189.713 50.8237L189.759 50.9317L189.812 51.0369L193.39 49.248ZM194.606 49.76L195.111 45.792L195.102 45.7909L194.606 49.76ZM198.126 50.208H202.126V46.6848L198.631 46.24L198.126 50.208ZM198.126 52V56H202.126V52H198.126ZM180.91 52H176.91V56H180.91V52ZM180.91 50.208L180.404 46.24L176.91 46.6848V50.208H180.91ZM184.43 49.76L183.933 45.7909L183.924 45.792L184.43 49.76ZM185.646 49.248L189.223 51.0369L189.276 50.9317L189.322 50.8237L185.646 49.248ZM185.646 22.368L181.969 23.9437L182.015 24.0517L182.068 24.1568L185.646 22.368ZM184.43 21.792L183.924 25.76L183.933 25.7611L184.43 21.792ZM189.486 14.048V10.048C189.234 10.048 189.128 10.01 189.114 10.0049C189.106 10.0018 189.109 10.0021 189.116 10.0067C189.123 10.0114 189.123 10.0125 189.114 10.0036L186.286 12.832L183.457 15.6604C185.134 17.3375 187.279 18.048 189.486 18.048V14.048ZM186.286 12.832L189.185 10.077C189.146 10.0358 189.134 10.0111 189.122 9.97956C189.107 9.93994 189.07 9.81819 189.07 9.568H185.07H181.07C181.07 11.7786 181.779 13.8962 183.386 15.587L186.286 12.832ZM185.07 9.568H189.07C189.07 9.31613 189.108 9.21028 189.113 9.19687C189.116 9.18884 189.115 9.19142 189.111 9.19858C189.106 9.2057 189.105 9.20533 189.114 9.19642L186.286 6.368L183.457 3.53957C181.78 5.21669 181.07 7.36112 181.07 9.568H185.07ZM186.286 6.368L189.114 9.19642C189.123 9.18752 189.123 9.18864 189.116 9.19325C189.109 9.1979 189.106 9.19818 189.114 9.19513C189.128 9.19003 189.234 9.152 189.486 9.152V5.152V1.152C187.279 1.152 185.134 1.86245 183.457 3.53957L186.286 6.368ZM189.486 5.152V9.152C189.699 9.152 189.797 9.18464 189.825 9.19513C189.846 9.20336 189.876 9.21633 189.931 9.268L192.686 6.368L195.44 3.468C193.776 1.8863 191.693 1.152 189.486 1.152V5.152ZM192.686 6.368L189.93 9.26799C189.946 9.28226 189.946 9.28541 189.941 9.27734C189.938 9.27399 189.936 9.27017 189.934 9.26645C189.932 9.26274 189.931 9.26084 189.932 9.26156C189.932 9.26196 189.94 9.28124 189.948 9.32716C189.956 9.37408 189.966 9.45225 189.966 9.568H193.966H197.966C197.966 7.29826 197.191 5.1309 195.441 3.468L192.686 6.368ZM193.966 9.568H189.966C189.966 9.79496 189.93 9.89414 189.922 9.91565C189.916 9.92997 189.907 9.95339 189.857 10.0036L192.686 12.832L195.514 15.6604C197.193 13.9813 197.966 11.8395 197.966 9.568H193.966ZM192.686 12.832L189.931 9.932C189.876 9.98367 189.846 9.99663 189.825 10.0049C189.797 10.0154 189.699 10.048 189.486 10.048V14.048V18.048C191.693 18.048 193.776 17.3137 195.44 15.732L192.686 12.832ZM180.91 21.344H184.91V19.552H180.91H176.91V21.344H180.91ZM180.91 19.552V23.552H193.198V19.552V15.552H180.91V19.552ZM193.198 19.552H189.198V46.624H193.198H197.198V19.552H193.198ZM193.198 46.624H189.198C189.198 47.3928 189.214 48.0834 189.256 48.6599C189.283 49.0311 189.348 49.9729 189.713 50.8237L193.39 49.248L197.066 47.6723C197.158 47.8873 197.204 48.0546 197.222 48.1279C197.243 48.2104 197.252 48.2622 197.253 48.27C197.255 48.2815 197.246 48.2262 197.235 48.0761C197.213 47.7779 197.198 47.3059 197.198 46.624H193.198ZM193.39 49.248L189.812 51.0369C190.48 52.3738 191.607 52.989 192.237 53.2545C192.911 53.5384 193.585 53.6635 194.109 53.7291L194.606 49.76L195.102 45.7909C194.944 45.7711 195.073 45.7683 195.342 45.8815C195.567 45.9763 196.427 46.3782 196.967 47.4591L193.39 49.248ZM194.606 49.76L194.1 53.728L197.62 54.176L198.126 50.208L198.631 46.24L195.111 45.792L194.606 49.76ZM198.126 50.208H194.126V52H198.126H202.126V50.208H198.126ZM198.126 52V48H180.91V52V56H198.126V52ZM180.91 52H184.91V50.208H180.91H176.91V52H180.91ZM180.91 50.208L181.415 54.176L184.935 53.728L184.43 49.76L183.924 45.792L180.404 46.24L180.91 50.208ZM184.43 49.76L184.926 53.7291C185.45 53.6635 186.124 53.5384 186.798 53.2545C187.428 52.989 188.555 52.3738 189.223 51.0369L185.646 49.248L182.068 47.4591C182.608 46.3782 183.468 45.9763 183.693 45.8815C183.962 45.7683 184.091 45.7711 183.933 45.7909L184.43 49.76ZM185.646 49.248L189.322 50.8237C189.687 49.9729 189.752 49.0311 189.779 48.6599C189.821 48.0834 189.838 47.3928 189.838 46.624H185.838H181.838C181.838 47.3059 181.822 47.7779 181.8 48.0761C181.789 48.2262 181.78 48.2815 181.782 48.27C181.783 48.2622 181.792 48.2104 181.813 48.1279C181.831 48.0546 181.877 47.8873 181.969 47.6723L185.646 49.248ZM185.838 46.624H189.838V24.928H185.838H181.838V46.624H185.838ZM185.838 24.928H189.838C189.838 24.161 189.821 23.4718 189.778 22.9008C189.757 22.6177 189.725 22.3024 189.671 21.9898C189.632 21.7624 189.526 21.1857 189.223 20.5791L185.646 22.368L182.068 24.1568C181.928 23.877 181.861 23.6517 181.835 23.5573C181.805 23.4478 181.791 23.3737 181.788 23.3542C181.782 23.319 181.79 23.3556 181.801 23.4992C181.822 23.7815 181.838 24.2443 181.838 24.928H185.838ZM185.646 22.368L189.322 20.7923C188.749 19.4554 187.706 18.7395 186.958 18.385C186.224 18.0373 185.489 17.8932 184.926 17.8229L184.43 21.792L183.933 25.7611C184.053 25.7761 183.862 25.7707 183.533 25.6149C183.19 25.4525 182.414 24.9819 181.969 23.9437L185.646 22.368ZM184.43 21.792L184.935 17.824L181.415 17.376L180.91 21.344L180.404 25.312L183.924 25.76L184.43 21.792ZM233.237 50.4L235.973 53.3182L238.489 50.9591L236.526 48.1232L233.237 50.4ZM230.741 52L229.146 48.3317L229.116 48.3449L229.086 48.3585L230.741 52ZM222.869 51.488L220.65 54.8162L220.678 54.8347L220.706 54.8527L222.869 51.488ZM220.565 48.224L224.424 47.1715L222.516 40.1759L217.616 45.5211L220.565 48.224ZM215.893 51.616L217.411 55.3167L217.434 55.3071L217.458 55.2973L215.893 51.616ZM204.181 50.208L201.166 52.8365L201.183 52.856L201.2 52.8752L204.181 50.208ZM204.757 37.92L207.325 40.987L207.345 40.9697L207.366 40.952L204.757 37.92ZM220.309 35.552V39.552H224.309V35.552H220.309ZM218.901 23.136L215.589 25.3794L215.631 25.4412L215.675 25.5015L218.901 23.136ZM212.181 21.984L214.166 25.457L214.227 25.4221L214.286 25.3851L212.181 21.984ZM210.261 24.928L206.394 23.9044L206.383 23.9449L206.374 23.9856L210.261 24.928ZM210.453 31.072L209.877 35.0303L215.343 35.8254L214.393 30.384L210.453 31.072ZM203.413 30.048L199.472 30.7334L199.969 33.5891L202.837 34.0063L203.413 30.048ZM204.053 24.608L200.44 22.8918L200.43 22.9117L200.421 22.9318L204.053 24.608ZM208.085 20.512L210 24.0236L210.031 24.007L210.061 23.9898L208.085 20.512ZM222.869 20.512L220.823 23.9492L222.869 20.512ZM226.581 24.736L222.855 26.1902L222.87 26.2293L222.886 26.2681L226.581 24.736ZM232.085 48.736L235.374 46.4592L232.709 42.6104L229.323 45.8426L232.085 48.736ZM216.853 48.416L218.698 51.9649L218.724 51.9516L218.749 51.9379L216.853 48.416ZM220.309 45.152L223.499 47.5658L224.309 46.4949V45.152H220.309ZM220.309 37.792H224.309V33.792H220.309V37.792ZM210.965 39.264L208.074 36.4991L208.074 36.4991L210.965 39.264ZM210.581 47.84L213.816 45.4873L213.816 45.4873L210.581 47.84ZM233.237 50.4L230.501 47.4818C230.197 47.7668 229.766 48.062 229.146 48.3317L230.741 52L232.336 55.6683C233.678 55.0847 234.911 54.3132 235.973 53.3182L233.237 50.4ZM230.741 52L229.086 48.3585C228.807 48.4855 228.256 48.64 227.285 48.64V52.64V56.64C229.045 56.64 230.798 56.3679 232.396 55.6415L230.741 52ZM227.285 52.64V48.64C226.124 48.64 225.446 48.3897 225.032 48.1233L222.869 51.488L220.706 54.8527C222.681 56.1223 224.947 56.64 227.285 56.64V52.64ZM222.869 51.488L225.088 48.1598C224.785 47.9582 224.569 47.7027 224.424 47.1715L220.565 48.224L216.706 49.2765C217.329 51.5613 218.649 53.4818 220.65 54.8162L222.869 51.488ZM220.565 48.224L217.616 45.5211C216.547 46.6881 215.448 47.459 214.328 47.9347L215.893 51.616L217.458 55.2973C219.752 54.3223 221.767 52.8319 223.514 50.9269L220.565 48.224ZM215.893 51.616L214.375 47.9153C213.179 48.406 211.987 48.64 210.773 48.64V52.64V56.64C213.058 56.64 215.279 56.1913 217.411 55.3167L215.893 51.616ZM210.773 52.64V48.64C208.547 48.64 207.613 48.0444 207.162 47.5408L204.181 50.208L201.2 52.8752C203.651 55.6143 207.111 56.64 210.773 56.64V52.64ZM204.181 50.208L207.196 47.5795C206.458 46.733 206.005 45.6335 206.005 44H202.005H198.005C198.005 47.3159 199.002 50.355 201.166 52.8365L204.181 50.208ZM202.005 44H206.005C206.005 42.596 206.451 41.7188 207.325 40.987L204.757 37.92L202.189 34.853C199.394 37.1932 198.005 40.3694 198.005 44H202.005ZM204.757 37.92L207.366 40.952C208.052 40.3613 210.027 39.552 214.485 39.552V35.552V31.552C209.642 31.552 205.131 32.3213 202.148 34.888L204.757 37.92ZM214.485 35.552V39.552H220.309V35.552V31.552H214.485V35.552ZM220.309 35.552H224.309V30.368H220.309H216.309V35.552H220.309ZM220.309 30.368H224.309C224.309 28.4427 224.183 26.6802 223.883 25.1396C223.591 23.6408 223.083 22.075 222.127 20.7705L218.901 23.136L215.675 25.5015C215.657 25.4769 215.853 25.7565 216.031 26.6684C216.2 27.5384 216.309 28.7519 216.309 30.368H220.309ZM218.901 23.136L222.213 20.8926C220.559 18.4519 218.05 17.152 215.125 17.152V21.152V25.152C215.258 25.152 215.338 25.1655 215.378 25.1745C215.398 25.1791 215.41 25.1832 215.416 25.1854C215.422 25.1875 215.424 25.1888 215.424 25.189C215.425 25.1891 215.426 25.1898 215.429 25.192C215.432 25.1942 215.44 25.1997 215.452 25.2106C215.474 25.2316 215.523 25.2813 215.589 25.3794L218.901 23.136ZM215.125 21.152V17.152C213.324 17.152 211.612 17.6317 210.076 18.5829L212.181 21.984L214.286 25.3851C214.542 25.2269 214.793 25.152 215.125 25.152V21.152ZM212.181 21.984L210.196 18.511C208.018 19.7556 206.927 21.8897 206.394 23.9044L210.261 24.928L214.128 25.9516C214.24 25.5286 214.347 25.3384 214.379 25.2891C214.4 25.2575 214.339 25.3578 214.166 25.457L212.181 21.984ZM210.261 24.928L206.374 23.9856C205.834 26.2132 206.018 28.9247 206.513 31.76L210.453 31.072L214.393 30.384C213.95 27.8433 214.006 26.4588 214.148 25.8704L210.261 24.928ZM210.453 31.072L211.029 27.1137L203.989 26.0897L203.413 30.048L202.837 34.0063L209.877 35.0303L210.453 31.072ZM203.413 30.048L207.354 29.3626C207.139 28.1272 207.287 27.1461 207.685 26.2842L204.053 24.608L200.421 22.9318C199.283 25.3979 199.004 28.0434 199.472 30.7334L203.413 30.048ZM204.053 24.608L207.666 26.3242C208.068 25.4787 208.762 24.6989 210 24.0236L208.085 20.512L206.17 17.0004C203.653 18.3731 201.66 20.3239 200.44 22.8918L204.053 24.608ZM208.085 20.512L210.061 23.9898C211.164 23.3632 212.815 22.912 215.253 22.912V18.912V14.912C211.888 14.912 208.761 15.5275 206.109 17.0342L208.085 20.512ZM215.253 18.912V22.912C218.195 22.912 219.909 23.4051 220.823 23.9492L222.869 20.512L224.915 17.0748C222.245 15.4856 218.881 14.912 215.253 14.912V18.912ZM222.869 20.512L220.823 23.9492C221.939 24.6136 222.532 25.3625 222.855 26.1902L226.581 24.736L230.307 23.2818C229.265 20.6108 227.383 18.5437 224.915 17.0748L222.869 20.512ZM226.581 24.736L222.886 26.2681C223.398 27.5035 223.669 28.857 223.669 30.368H227.669H231.669C231.669 27.8683 231.214 25.4672 230.276 23.2039L226.581 24.736ZM227.669 30.368H223.669V45.152H227.669H231.669V30.368H227.669ZM227.669 45.152H223.669C223.669 46.3331 223.72 47.4241 223.852 48.365C223.962 49.1501 224.199 50.4317 224.956 51.5248L228.245 49.248L231.534 46.9712C231.656 47.1484 231.729 47.2949 231.766 47.3798C231.805 47.4668 231.822 47.5216 231.824 47.5306C231.827 47.5412 231.803 47.4606 231.774 47.251C231.714 46.8266 231.669 46.1469 231.669 45.152H227.669ZM228.245 49.248L224.956 51.5248C225.738 52.6538 227.23 54.08 229.525 54.08V50.08V46.08C230.13 46.08 230.654 46.2722 231.033 46.5182C231.373 46.739 231.521 46.9527 231.534 46.9712L228.245 49.248ZM229.525 50.08V54.08C231.834 54.08 233.643 52.7784 234.847 51.6294L232.085 48.736L229.323 45.8426C229.185 45.974 229.076 46.0644 228.997 46.124C228.917 46.1839 228.879 46.2041 228.882 46.2024C228.885 46.2005 229.117 46.08 229.525 46.08V50.08ZM232.085 48.736L228.796 51.0128L229.948 52.6768L233.237 50.4L236.526 48.1232L235.374 46.4592L232.085 48.736ZM213.589 49.248V53.248C215.394 53.248 217.111 52.7905 218.698 51.9649L216.853 48.416L215.008 44.8671C214.462 45.1508 214.003 45.248 213.589 45.248V49.248ZM216.853 48.416L218.749 51.9379C220.571 50.9571 222.134 49.3685 223.499 47.5658L220.309 45.152L217.119 42.7382C216.094 44.0928 215.354 44.6803 214.957 44.8941L216.853 48.416ZM220.309 45.152H224.309V37.792H220.309H216.309V45.152H220.309ZM220.309 37.792V33.792H215.509V37.792V41.792H220.309V37.792ZM215.509 37.792V33.792C212.907 33.792 210.092 34.3901 208.074 36.4991L210.965 39.264L213.856 42.0289C213.716 42.1752 213.93 41.792 215.509 41.792V37.792ZM210.965 39.264L208.074 36.4991C206.122 38.5402 205.557 41.2911 205.557 43.872H209.557H213.557C213.557 42.2715 213.931 41.9505 213.856 42.0289L210.965 39.264ZM209.557 43.872H205.557C205.557 46.0445 205.982 48.3167 207.346 50.1927L210.581 47.84L213.816 45.4873C213.815 45.486 213.557 45.1129 213.557 43.872H209.557ZM210.581 47.84L207.346 50.1927C208.895 52.3218 211.192 53.248 213.589 53.248V49.248V45.248C213.401 45.248 213.418 45.2158 213.541 45.2732C213.6 45.3008 213.661 45.3395 213.718 45.3863C213.773 45.4325 213.804 45.4715 213.816 45.4873L210.581 47.84Z" fill="#88D396" mask="url(#path-1-outside-1_1_2)"/>
</svg>
